<svg id="Logos" xmlns="http://www.w3.org/2000/svg" xmlns:xlink="http://www.w3.org/1999/xlink" width="80" height="80" viewBox="0 0 80 80"><defs><style>.cls-1{fill:#0052cc;}.cls-2{fill:none;}.cls-3{fill:url(#linear-gradient);}.cls-4{fill:#fff;}</style><linearGradient id="linear-gradient" x1="57.94" y1="39.45" x2="41.01" y2="50.91" gradientUnits="userSpaceOnUse"><stop offset="0.07" stop-color="#fff" stop-opacity="0.4"/><stop offset="1" stop-color="#fff"/></linearGradient></defs><title>bitbucket-icon-contained-gradient-white</title><rect class="cls-1" width="80" height="80"/><polygon class="cls-2" points="36.33 45.35 43.86 45.35 45.68 34.74 34.33 34.74 36.33 45.35"/><path class="cls-3" d="M56.51,34.74H45.68L43.86,45.35H36.33L27.5,55.86a1.59,1.59,0,0,0,1,.38H52a1.15,1.15,0,0,0,1.14-1Z"/><path class="cls-4" d="M23.24,23.86A1.14,1.14,0,0,0,22.1,25.2L27,54.93a1.52,1.52,0,0,0,.53.93h0a1.59,1.59,0,0,0,1,.38l9.09-10.89H36.33l-2-10.61H56.51l1.55-9.54a1.15,1.15,0,0,0-1.14-1.34Z"/></svg>