<?xml version="1.0" encoding="UTF-8" standalone="no"?>
<!-- Created with Inkscape (http://www.inkscape.org/) -->

<svg
   xmlns:dc="http://purl.org/dc/elements/1.1/"
   xmlns:cc="http://creativecommons.org/ns#"
   xmlns:rdf="http://www.w3.org/1999/02/22-rdf-syntax-ns#"
   xmlns:svg="http://www.w3.org/2000/svg"
   xmlns="http://www.w3.org/2000/svg"
   xmlns:sodipodi="http://sodipodi.sourceforge.net/DTD/sodipodi-0.dtd"
   xmlns:inkscape="http://www.inkscape.org/namespaces/inkscape"
   width="56.999901mm"
   height="23.999825mm"
   viewBox="0 0 56.999901 23.999825"
   version="1.1"
   id="svg953"
   inkscape:version="0.92.3 (2405546, 2018-03-11)"
   sodipodi:docname="b.svg">
  <defs
     id="defs947" />
  <sodipodi:namedview
     id="base"
     pagecolor="#ffffff"
     bordercolor="#666666"
     borderopacity="1.0"
     inkscape:pageopacity="0.0"
     inkscape:pageshadow="2"
     inkscape:zoom="1.979899"
     inkscape:cx="137.98412"
     inkscape:cy="102.08216"
     inkscape:document-units="mm"
     inkscape:current-layer="layer1"
     showgrid="false"
     fit-margin-top="0"
     fit-margin-left="0"
     fit-margin-right="0"
     fit-margin-bottom="0"
     inkscape:window-width="1366"
     inkscape:window-height="741"
     inkscape:window-x="0"
     inkscape:window-y="6"
     inkscape:window-maximized="0" />
  <metadata
     id="metadata950">
    <rdf:RDF>
      <cc:Work
         rdf:about="">
        <dc:format>image/svg+xml</dc:format>
        <dc:type
           rdf:resource="http://purl.org/dc/dcmitype/StillImage" />
        <dc:title></dc:title>
      </cc:Work>
    </rdf:RDF>
  </metadata>
  <g
     inkscape:label="Layer 1"
     inkscape:groupmode="layer"
     id="layer1"
     transform="translate(-2.6458333e-5,-272.92395)">
    <g
       transform="matrix(0.26458333,0,0,0.26458333,0,272.92292)"
       id="g909"
       style="fill:#ffffff">
      <path
         transform="translate(0,-0.29)"
         d="m 71.6571,25.9829 -27.092,16.734 c -3.378,1.975 -5.87,4.191 -5.871,8.264 v 33.383 c -0.002,2.439 0.983,4.019 2.495,4.477 -0.496,0.086 -0.998,0.146 -1.504,0.146 -1.586,0 -3.15,-0.431 -4.523,-1.246 L 6.5251,70.7449 c -2.801,-1.663 -4.541,-4.765 -4.541,-8.097 v -33.997 c 0,-3.332 1.74,-6.434 4.54,-8.096 l 28.637,-16.999 c 1.374,-0.815 2.938,-1.246 4.523,-1.246 1.586,0 3.15,0.431 4.523,1.246 l 28.638,16.999 c 2.36,1.401 3.952,3.827 4.399,6.548 -0.949,-2.027 -3.091,-2.578 -5.587,-1.12 z m -4.977,41.81 c 0,0.227 -0.029,0.438 -0.218,0.548 l -7.241,4.401 c -0.189,0.11 -0.342,0.015 -0.342,-0.212 v -1.866 c 0,-0.227 0.14,-0.351 0.329,-0.462 l 7.131,-4.267 c 0.189,-0.111 0.342,-0.015 0.341,0.212 z m -15.013,4.109 0.047,2.442 c 0.003,0.295 -0.188,0.631 -0.419,0.748 l -1.446,0.833 c -0.232,0.117 -0.422,-0.026 -0.425,-0.321 l -0.025,-2.402 c -1.239,0.515 -2.494,0.639 -3.295,0.317 -0.152,-0.059 -0.217,-0.282 -0.157,-0.536 l 0.524,-2.208 c 0.042,-0.174 0.134,-0.348 0.259,-0.459 0.044,-0.043 0.09,-0.076 0.136,-0.099 0.083,-0.042 0.164,-0.051 0.234,-0.024 0.863,0.29 1.968,0.154 3.031,-0.384 1.35,-0.683 2.253,-2.06 2.239,-3.428 -0.013,-1.241 -0.685,-1.757 -2.319,-1.769 -2.079,0.006 -4.019,-0.403 -4.051,-3.466 -0.026,-2.521 1.285,-5.144 3.36,-6.802 l -0.026,-2.466 c -0.003,-0.302 0.182,-0.636 0.42,-0.756 l 1.4,-0.894 c 0.231,-0.117 0.421,0.027 0.425,0.329 l 0.023,2.467 c 1.033,-0.41 1.93,-0.521 2.743,-0.333 0.176,0.047 0.254,0.287 0.182,0.572 l -0.543,2.186 c -0.042,0.165 -0.135,0.332 -0.247,0.437 -0.047,0.046 -0.095,0.081 -0.143,0.105 -0.073,0.037 -0.145,0.049 -0.213,0.035 -0.372,-0.083 -1.254,-0.277 -2.642,0.426 -1.456,0.737 -1.964,2.002 -1.955,2.941 0.012,1.121 0.587,1.462 2.573,1.496 2.646,0.043 3.79,1.2 3.817,3.864 0.027,2.617 -1.37,5.427 -3.507,7.149 z m 22.179,-53.088 -28.638,-16.998 c -1.709,-1.015 -3.616,-1.522 -5.524,-1.522 -1.907,0 -3.815,0.507 -5.524,1.522 l -28.637,16.998 c -3.418,2.029 -5.523,5.779 -5.523,9.837 v 33.997 c 0,4.057 2.105,7.808 5.524,9.837 l 28.637,16.996 c 1.709,1.015 3.615,1.521 5.524,1.521 1.907,0 3.814,-0.506 5.523,-1.521 l 28.637,-16.996 c 3.418,-2.029 5.525,-5.78 5.525,-9.837 v -33.997 c 0,-4.058 -2.107,-7.808 -5.524,-9.837 z"
         id="Fill-1"
         mask="none"
         style="opacity:1;fill:#ffffff;fill-opacity:1;fill-rule:evenodd;stroke:none;stroke-width:1"
         inkscape:connector-curvature="0" />
      <g
         id="g880"
         style="fill:#ffffff">
        <path
           d="m 98.53,47.9133 h 6.311 c 0.891,0.028 1.725,0.172 2.48,0.426 0.719,0.24 1.351,0.587 1.88,1.03 0.517,0.434 0.914,0.952 1.21,1.579 0.29,0.619 0.431,1.353 0.416,2.208 0,0.807 -0.159,1.526 -0.474,2.137 -0.325,0.633 -0.752,1.151 -1.301,1.583 -0.573,0.449 -1.246,0.806 -1.999,1.061 -0.768,0.259 -1.593,0.399 -2.427,0.412 H 98.53 Z m 10.841,-9.299 c -0.329,0.559 -0.747,1.017 -1.278,1.399 -0.551,0.395 -1.193,0.704 -1.912,0.915 -0.746,0.221 -1.519,0.34 -2.27,0.354 H 98.53 v -8.9 h 5.221 c 0.839,0.015 1.668,0.119 2.466,0.311 0.734,0.175 1.386,0.45 1.936,0.814 0.515,0.341 0.915,0.768 1.224,1.304 0.295,0.514 0.445,1.173 0.445,1.958 0,0.724 -0.148,1.327 -0.451,1.845 z m 7.035,8.064 c -0.714,-0.862 -1.575,-1.608 -2.559,-2.217 -0.121,-0.074 -0.243,-0.146 -0.367,-0.217 0.785,-0.524 1.483,-1.141 2.078,-1.836 0.636,-0.743 1.141,-1.59 1.504,-2.515 0.365,-0.931 0.56,-1.966 0.581,-3.086 0.02,-1.942 -0.387,-3.651 -1.211,-5.081 -0.81,-1.406 -1.911,-2.578 -3.271,-3.487 -1.319,-0.879 -2.838,-1.536 -4.516,-1.954 -1.625,-0.404 -3.31,-0.618 -5.025,-0.636 H 92.157 c -0.8,0 -1.449,0.617 -1.449,1.378 v 36.651 c 0,0.761 0.649,1.378 1.449,1.378 h 12.352 c 1.778,-0.018 3.529,-0.286 5.204,-0.795 1.701,-0.518 3.229,-1.276 4.542,-2.255 1.344,-1.001 2.43,-2.26 3.228,-3.741 0.811,-1.502 1.212,-3.243 1.192,-5.16 0,-1.24 -0.201,-2.417 -0.596,-3.498 -0.395,-1.08 -0.958,-2.065 -1.673,-2.929 z"
           id="Fill-4"
           style="opacity:1;fill:#ffffff;fill-opacity:1;fill-rule:evenodd;stroke:none;stroke-width:1"
           inkscape:connector-curvature="0" />
        <path
           d="m 139.8919,48.7588 h -6.328 l 3.189,-9.827 z m 0.317,-22.149 c -0.191,-0.572 -0.749,-0.96 -1.381,-0.96 h -4.103 c -0.629,0 -1.185,0.385 -1.378,0.954 l -12.443,36.652 c -0.142,0.419 -0.065,0.877 0.208,1.234 0.273,0.356 0.708,0.566 1.171,0.566 h 4.898 c 0.634,0 1.195,-0.393 1.383,-0.969 l 2.781,-8.522 h 10.726 l 2.731,8.516 c 0.186,0.58 0.749,0.975 1.386,0.975 h 4.871 c 0.462,0 0.896,-0.209 1.169,-0.564 0.273,-0.354 0.351,-0.811 0.211,-1.23 z"
           id="Fill-6"
           style="opacity:1;fill:#ffffff;fill-opacity:1;fill-rule:evenodd;stroke:none;stroke-width:1"
           inkscape:connector-curvature="0" />
        <path
           d="m 181.8718,48.0946 c -0.655,-0.84 -1.428,-1.599 -2.301,-2.259 -0.839,-0.636 -1.754,-1.212 -2.719,-1.716 -0.947,-0.494 -1.948,-0.938 -2.976,-1.322 -0.988,-0.366 -1.989,-0.702 -2.989,-1.002 -0.848,-0.247 -1.756,-0.537 -2.699,-0.861 -0.875,-0.299 -1.697,-0.678 -2.444,-1.127 -0.676,-0.406 -1.238,-0.905 -1.672,-1.484 -0.376,-0.502 -0.566,-1.125 -0.578,-1.882 0,-0.751 0.147,-1.378 0.451,-1.92 0.318,-0.565 0.732,-1.028 1.266,-1.413 0.553,-0.4 1.199,-0.706 1.919,-0.909 1.684,-0.477 3.573,-0.406 4.938,0.101 0.739,0.274 1.383,0.662 1.911,1.15 0.535,0.496 0.974,1.103 1.303,1.803 0.346,0.737 0.584,1.577 0.707,2.495 0.091,0.687 0.707,1.203 1.437,1.203 h 5.029 c 0.39,0 0.763,-0.148 1.035,-0.413 0.273,-0.264 0.422,-0.622 0.414,-0.992 -0.04,-1.878 -0.475,-3.612 -1.294,-5.152 -0.81,-1.519 -1.903,-2.833 -3.247,-3.906 -1.326,-1.057 -2.865,-1.887 -4.574,-2.47 -3.243,-1.103 -6.847,-1.162 -10.29,-0.143 -1.656,0.491 -3.16,1.222 -4.47,2.17 -1.336,0.966 -2.432,2.168 -3.258,3.569 -0.852,1.444 -1.284,3.093 -1.284,4.903 0,1.822 0.439,3.444 1.304,4.822 0.821,1.307 1.893,2.456 3.186,3.413 1.245,0.923 2.64,1.71 4.145,2.34 1.445,0.605 2.885,1.129 4.283,1.56 0.918,0.281 1.875,0.593 2.871,0.939 0.905,0.315 1.745,0.712 2.495,1.18 0.688,0.429 1.234,0.94 1.666,1.56 0.381,0.548 0.566,1.229 0.566,2.084 0,0.76 -0.158,1.381 -0.483,1.898 -0.355,0.565 -0.799,1.019 -1.356,1.388 -0.58,0.382 -1.255,0.67 -2.011,0.854 -1.812,0.444 -3.783,0.374 -5.337,-0.103 -0.833,-0.255 -1.575,-0.636 -2.205,-1.133 -0.628,-0.495 -1.15,-1.111 -1.553,-1.829 -0.41,-0.73 -0.686,-1.594 -0.821,-2.565 -0.095,-0.685 -0.71,-1.197 -1.436,-1.197 h -5.003 c -0.392,0 -0.767,0.15 -1.039,0.417 -0.273,0.267 -0.421,0.628 -0.41,1 0.06,1.963 0.559,3.749 1.484,5.308 0.903,1.523 2.095,2.83 3.542,3.887 1.421,1.04 3.052,1.847 4.846,2.398 1.777,0.545 3.619,0.821 5.475,0.821 1.66,0 3.342,-0.225 4.998,-0.668 1.686,-0.451 3.224,-1.137 4.57,-2.037 1.38,-0.923 2.521,-2.093 3.39,-3.48 0.9,-1.435 1.356,-3.122 1.356,-5.01 0,-1.237 -0.192,-2.393 -0.57,-3.434 -0.374,-1.027 -0.901,-1.981 -1.568,-2.836"
           id="Fill-8"
           style="opacity:1;fill:#ffffff;fill-opacity:1;fill-rule:evenodd;stroke:none;stroke-width:1"
           inkscape:connector-curvature="0" />
        <path
           inkscape:connector-curvature="0"
           style="opacity:1;fill:#ffffff;fill-opacity:1;fill-rule:evenodd;stroke:none;stroke-width:1"
           mask="none"
           id="Fill-10"
           d="m 26.9837,0.9396 h -4.633 c -0.8,0 -1.449,0.616 -1.449,1.377 v 14.381 H 7.9957 V 2.3166 c 0,-0.761 -0.648,-1.377 -1.448,-1.377 h -4.607 c -0.8,0 -1.449,0.616 -1.449,1.377 v 36.652 c 0,0.761 0.649,1.377 1.449,1.377 h 4.607 c 0.8,0 1.448,-0.616 1.448,-1.377 v -15.564 h 12.906 v 15.564 c 0,0.761 0.649,1.377 1.449,1.377 h 4.633 c 0.8,0 1.449,-0.616 1.449,-1.377 V 2.3166 c 0,-0.761 -0.649,-1.377 -1.449,-1.377"
           transform="translate(187,24.71)" />
      </g>
      <g
         id="g861"
         style="fill:#ffffff">
        <polygon
           id="Fill-13"
           points="93.3859,76.0987 92.4489,76.0987 92.4489,71.4087 90.7079,71.4087 90.7079,70.6697 95.1389,70.6697 95.1389,71.4087 93.3859,71.4087 "
           style="opacity:1;fill:#ffffff;fill-opacity:1;fill-rule:evenodd;stroke:none;stroke-width:1" />
        <polygon
           id="Fill-15"
           points="99.6188,70.6698 100.5358,70.6698 100.5358,76.0988 99.6188,76.0988 99.6188,73.6758 97.6778,73.6758 97.6778,76.0988 96.7638,76.0988 96.7638,70.6698 97.6778,70.6698 97.6778,72.9408 99.6188,72.9408 "
           style="opacity:1;fill:#ffffff;fill-opacity:1;fill-rule:evenodd;stroke:none;stroke-width:1" />
        <polygon
           id="Fill-17"
           points="103.5764,72.9403 105.9254,72.9403 105.9254,73.6643 103.5764,73.6643 103.5764,75.3683 106.3254,75.3683 106.3254,76.0983 102.6314,76.0983 102.6314,70.6703 106.2974,70.6703 106.2974,71.4083 103.5764,71.4083 "
           style="opacity:1;fill:#ffffff;fill-opacity:1;fill-rule:evenodd;stroke:none;stroke-width:1" />
        <path
           d="m 115.0058,73.6383 v 1.73 h 1.027 c 0.149,-0.002 0.285,-0.024 0.408,-0.065 0.123,-0.041 0.228,-0.098 0.318,-0.17 0.088,-0.072 0.158,-0.16 0.209,-0.265 0.051,-0.104 0.077,-0.22 0.077,-0.35 0,-0.137 -0.022,-0.259 -0.067,-0.367 -0.045,-0.109 -0.109,-0.2 -0.192,-0.275 -0.084,-0.074 -0.186,-0.132 -0.306,-0.173 -0.12,-0.041 -0.255,-0.062 -0.404,-0.065 z m 0,-0.683 h 0.902 c 0.141,-0.002 0.272,-0.02 0.394,-0.054 0.121,-0.033 0.226,-0.083 0.315,-0.149 0.089,-0.065 0.16,-0.146 0.212,-0.242 0.052,-0.096 0.078,-0.206 0.078,-0.329 0,-0.137 -0.024,-0.254 -0.074,-0.352 -0.05,-0.096 -0.12,-0.176 -0.21,-0.238 -0.09,-0.061 -0.196,-0.107 -0.319,-0.136 -0.123,-0.029 -0.258,-0.044 -0.404,-0.047 h -0.894 z m -0.945,3.144 v -5.429 h 1.823 c 0.275,0.003 0.531,0.033 0.77,0.09 0.24,0.057 0.449,0.146 0.628,0.265 0.179,0.119 0.319,0.271 0.421,0.456 0.102,0.185 0.152,0.405 0.149,0.659 -0.002,0.268 -0.081,0.497 -0.235,0.687 -0.154,0.191 -0.362,0.338 -0.623,0.442 0.159,0.042 0.301,0.103 0.425,0.181 0.124,0.078 0.228,0.172 0.312,0.281 0.083,0.11 0.148,0.231 0.192,0.363 0.044,0.134 0.067,0.275 0.067,0.424 0,0.258 -0.05,0.486 -0.15,0.682 -0.099,0.196 -0.237,0.36 -0.413,0.492 -0.177,0.132 -0.386,0.232 -0.627,0.3 -0.242,0.069 -0.503,0.105 -0.783,0.107 z"
           id="Fill-19"
           style="opacity:1;fill:#ffffff;fill-opacity:1;fill-rule:evenodd;stroke:none;stroke-width:1"
           inkscape:connector-curvature="0" />
        <path
           d="m 122.7318,73.0348 c -0.002,-0.204 -0.022,-0.407 -0.059,-0.608 -0.036,-0.201 -0.098,-0.381 -0.184,-0.538 -0.087,-0.159 -0.201,-0.286 -0.343,-0.385 -0.143,-0.098 -0.321,-0.147 -0.535,-0.147 -0.212,0 -0.388,0.049 -0.528,0.147 -0.139,0.099 -0.251,0.227 -0.333,0.386 -0.083,0.159 -0.14,0.338 -0.173,0.539 -0.032,0.2 -0.05,0.402 -0.053,0.606 v 0.7 c 0.003,0.204 0.022,0.406 0.055,0.607 0.035,0.2 0.092,0.38 0.175,0.54 0.082,0.16 0.194,0.29 0.333,0.39 0.14,0.099 0.316,0.149 0.528,0.149 0.214,0 0.392,-0.05 0.535,-0.149 0.142,-0.1 0.256,-0.229 0.343,-0.388 0.086,-0.16 0.147,-0.339 0.182,-0.541 0.035,-0.201 0.055,-0.404 0.057,-0.608 z m 0.945,0.7 c 0,0.321 -0.043,0.629 -0.13,0.923 -0.086,0.295 -0.215,0.554 -0.386,0.78 -0.171,0.224 -0.385,0.403 -0.643,0.536 -0.257,0.133 -0.558,0.199 -0.903,0.199 -0.343,0 -0.641,-0.067 -0.894,-0.201 -0.254,-0.134 -0.465,-0.314 -0.634,-0.538 -0.168,-0.225 -0.295,-0.484 -0.38,-0.778 -0.085,-0.293 -0.127,-0.6 -0.127,-0.921 v -0.693 c 0,-0.214 0.018,-0.422 0.057,-0.626 0.037,-0.204 0.094,-0.396 0.168,-0.577 0.075,-0.18 0.168,-0.346 0.278,-0.499 0.111,-0.153 0.242,-0.284 0.392,-0.393 0.151,-0.11 0.321,-0.196 0.51,-0.258 0.19,-0.061 0.398,-0.093 0.626,-0.093 0.345,0 0.646,0.067 0.904,0.202 0.257,0.134 0.472,0.314 0.645,0.538 0.172,0.226 0.301,0.486 0.387,0.782 0.087,0.295 0.13,0.603 0.13,0.924 z"
           id="Fill-21"
           style="opacity:1;fill:#ffffff;fill-opacity:1;fill-rule:evenodd;stroke:none;stroke-width:1"
           inkscape:connector-curvature="0" />
        <path
           d="m 129.2619,70.6702 0.008,3.636 c -0.003,0.278 -0.05,0.533 -0.141,0.762 -0.092,0.23 -0.22,0.427 -0.385,0.591 -0.164,0.164 -0.363,0.291 -0.598,0.38 -0.233,0.089 -0.495,0.134 -0.785,0.134 -0.283,0 -0.539,-0.045 -0.769,-0.134 -0.23,-0.089 -0.427,-0.215 -0.592,-0.378 -0.165,-0.163 -0.293,-0.36 -0.384,-0.59 -0.092,-0.229 -0.139,-0.485 -0.141,-0.765 l 0.008,-3.636 h 0.925 l 0.007,3.636 c 0.003,0.166 0.025,0.319 0.067,0.458 0.042,0.14 0.102,0.259 0.181,0.359 0.078,0.101 0.176,0.18 0.292,0.236 0.116,0.056 0.251,0.084 0.406,0.084 0.156,0 0.295,-0.028 0.415,-0.084 0.12,-0.056 0.221,-0.135 0.302,-0.236 0.081,-0.1 0.142,-0.219 0.185,-0.359 0.041,-0.139 0.063,-0.292 0.066,-0.458 l 0.008,-3.636 z"
           id="Fill-23"
           style="opacity:1;fill:#ffffff;fill-opacity:1;fill-rule:evenodd;stroke:none;stroke-width:1"
           inkscape:connector-curvature="0" />
        <path
           d="m 132.248,73.2583 h 0.866 c 0.157,0 0.301,-0.021 0.432,-0.063 0.13,-0.043 0.243,-0.103 0.339,-0.181 0.095,-0.079 0.169,-0.174 0.221,-0.288 0.052,-0.112 0.079,-0.243 0.079,-0.389 0,-0.152 -0.025,-0.286 -0.075,-0.402 -0.05,-0.118 -0.121,-0.216 -0.214,-0.296 -0.092,-0.079 -0.205,-0.139 -0.339,-0.18 -0.133,-0.041 -0.282,-0.063 -0.447,-0.065 h -0.862 z m 0.956,0.723 h -0.956 v 2.117 h -0.941 v -5.428 h 1.803 c 0.293,0.003 0.563,0.038 0.81,0.107 0.247,0.068 0.461,0.17 0.641,0.305 0.181,0.136 0.32,0.305 0.419,0.509 0.1,0.204 0.149,0.442 0.149,0.716 0,0.184 -0.025,0.351 -0.076,0.501 -0.051,0.151 -0.122,0.287 -0.214,0.409 -0.091,0.121 -0.201,0.228 -0.329,0.32 -0.128,0.093 -0.269,0.171 -0.423,0.235 l 1.207,2.282 v 0.044 h -1.003 z"
           id="Fill-25"
           style="opacity:1;fill:#ffffff;fill-opacity:1;fill-rule:evenodd;stroke:none;stroke-width:1"
           inkscape:connector-curvature="0" />
        <polygon
           id="Fill-27"
           points="140.7266,76.0988 139.7776,76.0988 137.9196,72.3638 137.9156,76.0988 136.9626,76.0988 136.9626,70.6698 137.9156,70.6698 139.7666,74.3958 139.7746,70.6698 140.7266,70.6698 "
           style="opacity:1;fill:#ffffff;fill-opacity:1;fill-rule:evenodd;stroke:none;stroke-width:1" />
        <polygon
           id="Fill-29"
           points="143.7711,72.9403 146.1201,72.9403 146.1201,73.6643 143.7711,73.6643 143.7711,75.3683 146.5201,75.3683 146.5201,76.0983 142.8261,76.0983 142.8261,70.6703 146.4921,70.6703 146.4921,71.4083 143.7711,71.4083 "
           style="opacity:1;fill:#ffffff;fill-opacity:1;fill-rule:evenodd;stroke:none;stroke-width:1" />
        <polygon
           id="Fill-31"
           mask="none"
           points="152.05,73.359 148.91,73.359 148.91,74.078 152.05,74.078 "
           style="opacity:1;fill:#ffffff;fill-opacity:1;fill-rule:evenodd;stroke:none;stroke-width:1" />
        <path
           d="m 155.4826,74.0741 h 1.309 l -0.646,-2.128 z m 1.545,0.765 h -1.784 l -0.392,1.26 h -0.973 l 1.855,-5.429 h 0.827 l 1.82,5.429 h -0.969 z"
           id="Fill-33"
           mask="none"
           style="opacity:1;fill:#ffffff;fill-opacity:1;fill-rule:evenodd;stroke:none;stroke-width:1"
           inkscape:connector-curvature="0" />
        <path
           d="m 163.8319,75.4208 c -0.096,0.109 -0.21,0.21 -0.341,0.302 -0.131,0.092 -0.277,0.171 -0.439,0.238 -0.162,0.067 -0.338,0.119 -0.527,0.157 -0.19,0.037 -0.392,0.055 -0.606,0.055 -0.343,0 -0.646,-0.063 -0.91,-0.19 -0.264,-0.126 -0.487,-0.299 -0.668,-0.519 -0.182,-0.221 -0.32,-0.48 -0.416,-0.778 -0.095,-0.298 -0.144,-0.619 -0.147,-0.962 v -0.67 c 0,-0.344 0.047,-0.664 0.141,-0.962 0.094,-0.299 0.23,-0.558 0.406,-0.78 0.177,-0.222 0.393,-0.396 0.649,-0.523 0.256,-0.129 0.549,-0.193 0.878,-0.193 0.295,0 0.559,0.039 0.792,0.115 0.233,0.078 0.433,0.189 0.6,0.335 0.167,0.145 0.3,0.322 0.398,0.531 0.098,0.208 0.16,0.442 0.186,0.701 h -0.925 c -0.023,-0.147 -0.06,-0.279 -0.11,-0.395 -0.05,-0.117 -0.116,-0.217 -0.2,-0.299 -0.084,-0.082 -0.185,-0.144 -0.304,-0.188 -0.119,-0.044 -0.259,-0.065 -0.421,-0.065 -0.199,0 -0.369,0.046 -0.512,0.139 -0.142,0.094 -0.26,0.219 -0.354,0.377 -0.094,0.158 -0.164,0.341 -0.209,0.548 -0.044,0.208 -0.068,0.425 -0.07,0.651 v 0.678 c 0.002,0.226 0.027,0.443 0.072,0.649 0.046,0.206 0.118,0.389 0.216,0.546 0.098,0.158 0.224,0.284 0.378,0.379 0.155,0.094 0.34,0.143 0.557,0.145 0.089,0 0.181,-0.005 0.275,-0.016 0.094,-0.012 0.184,-0.03 0.268,-0.054 0.085,-0.026 0.163,-0.057 0.234,-0.095 0.07,-0.04 0.128,-0.087 0.172,-0.145 l 0.008,-1.085 h -1.031 v -0.696 h 1.952 z"
           id="Fill-34"
           mask="none"
           style="opacity:1;fill:#ffffff;fill-opacity:1;fill-rule:evenodd;stroke:none;stroke-width:1"
           inkscape:connector-curvature="0" />
        <path
           d="m 166.9669,74.0741 h 1.309 l -0.646,-2.128 z m 1.545,0.765 h -1.784 l -0.392,1.26 h -0.973 l 1.855,-5.429 h 0.827 l 1.82,5.429 h -0.969 z"
           id="Fill-35"
           mask="none"
           style="opacity:1;fill:#ffffff;fill-opacity:1;fill-rule:evenodd;stroke:none;stroke-width:1"
           inkscape:connector-curvature="0" />
        <polygon
           id="Fill-36"
           mask="none"
           points="172.8192,71.4122 171.6112,71.4122 171.6112,70.6702 175.0072,70.6702 175.0072,71.4122 173.7722,71.4122 173.7722,75.3612 175.0072,75.3612 175.0072,76.0992 171.6112,76.0992 171.6112,75.3612 172.8192,75.3612 "
           style="opacity:1;fill:#ffffff;fill-opacity:1;fill-rule:evenodd;stroke:none;stroke-width:1" />
        <polygon
           id="Fill-37"
           mask="none"
           points="180.9213,76.0988 179.9723,76.0988 178.1143,72.3638 178.1103,76.0988 177.1573,76.0988 177.1573,70.6698 178.1103,70.6698 179.9613,74.3958 179.9693,70.6698 180.9213,70.6698 "
           style="opacity:1;fill:#ffffff;fill-opacity:1;fill-rule:evenodd;stroke:none;stroke-width:1" />
        <path
           d="m 191.676,74.7009 c 0,-0.129 -0.028,-0.243 -0.084,-0.341 -0.057,-0.099 -0.136,-0.184 -0.24,-0.26 -0.103,-0.074 -0.225,-0.139 -0.368,-0.195 -0.142,-0.056 -0.297,-0.107 -0.465,-0.155 -0.224,-0.062 -0.446,-0.139 -0.664,-0.231 -0.219,-0.092 -0.413,-0.205 -0.584,-0.337 -0.172,-0.133 -0.31,-0.289 -0.416,-0.467 -0.106,-0.177 -0.159,-0.382 -0.159,-0.616 0,-0.234 0.053,-0.443 0.159,-0.629 0.106,-0.185 0.248,-0.341 0.425,-0.471 0.178,-0.129 0.385,-0.229 0.62,-0.299 0.235,-0.069 0.481,-0.104 0.737,-0.104 0.275,0 0.531,0.041 0.771,0.121 0.239,0.081 0.448,0.195 0.627,0.34 0.179,0.145 0.321,0.319 0.425,0.521 0.105,0.203 0.158,0.428 0.161,0.674 h -0.941 c -0.013,-0.137 -0.044,-0.262 -0.092,-0.375 -0.049,-0.113 -0.117,-0.211 -0.204,-0.293 -0.088,-0.082 -0.194,-0.145 -0.32,-0.19 -0.125,-0.045 -0.27,-0.067 -0.435,-0.067 -0.141,0 -0.272,0.018 -0.392,0.052 -0.12,0.034 -0.224,0.086 -0.312,0.153 -0.087,0.067 -0.156,0.148 -0.205,0.242 -0.05,0.095 -0.075,0.202 -0.075,0.321 0,0.127 0.034,0.237 0.102,0.33 0.068,0.093 0.157,0.175 0.266,0.244 0.11,0.07 0.237,0.13 0.379,0.181 0.143,0.051 0.291,0.097 0.445,0.139 0.238,0.068 0.465,0.15 0.682,0.249 0.217,0.098 0.408,0.216 0.573,0.354 0.164,0.138 0.295,0.298 0.392,0.479 0.096,0.181 0.145,0.389 0.145,0.623 0,0.241 -0.054,0.453 -0.161,0.637 -0.107,0.184 -0.251,0.339 -0.431,0.462 -0.181,0.124 -0.39,0.218 -0.627,0.282 -0.238,0.063 -0.487,0.095 -0.746,0.095 -0.175,0 -0.348,-0.016 -0.521,-0.049 -0.173,-0.031 -0.338,-0.08 -0.496,-0.145 -0.158,-0.064 -0.305,-0.144 -0.441,-0.24 -0.136,-0.096 -0.254,-0.207 -0.355,-0.332 -0.1,-0.126 -0.18,-0.266 -0.237,-0.422 -0.058,-0.155 -0.088,-0.326 -0.09,-0.512 h 0.944 c 0.014,0.164 0.051,0.306 0.114,0.428 0.063,0.122 0.146,0.224 0.251,0.304 0.105,0.081 0.227,0.143 0.367,0.184 0.14,0.04 0.294,0.061 0.464,0.061 0.142,0 0.274,-0.017 0.396,-0.048 0.123,-0.033 0.231,-0.081 0.322,-0.144 0.091,-0.064 0.163,-0.142 0.216,-0.236 0.052,-0.093 0.078,-0.199 0.078,-0.318"
           id="Fill-38"
           mask="none"
           style="opacity:1;fill:#ffffff;fill-opacity:1;fill-rule:evenodd;stroke:none;stroke-width:1"
           inkscape:connector-curvature="0" />
        <polygon
           id="Fill-39"
           mask="none"
           points="197.2342,70.6698 198.1512,70.6698 198.1512,76.0988 197.2342,76.0988 197.2342,73.6758 195.2932,73.6758 195.2932,76.0988 194.3792,76.0988 194.3792,70.6698 195.2932,70.6698 195.2932,72.9408 197.2342,72.9408 "
           style="opacity:1;fill:#ffffff;fill-opacity:1;fill-rule:evenodd;stroke:none;stroke-width:1" />
        <polygon
           id="Fill-40"
           mask="none"
           points="201.1918,72.9403 203.5408,72.9403 203.5408,73.6643 201.1918,73.6643 201.1918,75.3683 203.9408,75.3683 203.9408,76.0983 200.2468,76.0983 200.2468,70.6703 203.9128,70.6703 203.9128,71.4083 201.1918,71.4083 "
           style="opacity:1;fill:#ffffff;fill-opacity:1;fill-rule:evenodd;stroke:none;stroke-width:1" />
        <polygon
           id="Fill-41"
           mask="none"
           points="206.0286,70.6706 206.9696,70.6706 206.9696,75.3686 209.6906,75.3686 209.6906,76.0986 206.0286,76.0986 "
           style="opacity:1;fill:#ffffff;fill-opacity:1;fill-rule:evenodd;stroke:none;stroke-width:1" />
        <polygon
           id="Fill-42"
           mask="none"
           points="211.7708,70.6706 212.7118,70.6706 212.7118,75.3686 215.4328,75.3686 215.4328,76.0986 211.7708,76.0986 "
           style="opacity:1;fill:#ffffff;fill-opacity:1;fill-rule:evenodd;stroke:none;stroke-width:1" />
      </g>
    </g>
  </g>
</svg>
