<?xml version="1.0" encoding="UTF-8" standalone="no"?>
<svg
   xmlns:dc="http://purl.org/dc/elements/1.1/"
   xmlns:cc="http://creativecommons.org/ns#"
   xmlns:rdf="http://www.w3.org/1999/02/22-rdf-syntax-ns#"
   xmlns:svg="http://www.w3.org/2000/svg"
   xmlns="http://www.w3.org/2000/svg"
   xmlns:sodipodi="http://sodipodi.sourceforge.net/DTD/sodipodi-0.dtd"
   xmlns:inkscape="http://www.inkscape.org/namespaces/inkscape"
   viewBox="0 0 35.5 34.7"
   version="1.1"
   id="svg4"
   sodipodi:docname="gh.svg"
   inkscape:version="0.92.3 (2405546, 2018-03-11)">
  <metadata
     id="metadata10">
    <rdf:RDF>
      <cc:Work
         rdf:about="">
        <dc:format>image/svg+xml</dc:format>
        <dc:type
           rdf:resource="http://purl.org/dc/dcmitype/StillImage" />
      </cc:Work>
    </rdf:RDF>
  </metadata>
  <defs
     id="defs8" />
  <sodipodi:namedview
     pagecolor="#ffffff"
     bordercolor="#666666"
     borderopacity="1"
     objecttolerance="10"
     gridtolerance="10"
     guidetolerance="10"
     inkscape:pageopacity="0"
     inkscape:pageshadow="2"
     inkscape:window-width="1366"
     inkscape:window-height="741"
     id="namedview6"
     showgrid="false"
     inkscape:zoom="6.8011526"
     inkscape:cx="-6.6576277"
     inkscape:cy="17.35"
     inkscape:window-x="0"
     inkscape:window-y="6"
     inkscape:window-maximized="0"
     inkscape:current-layer="svg4" />
  <path
     fill="#6c63ff"
     d="M33.2 8.9a17.7 17.7 0 0 0-6.5-6.5 17.4 17.4 0 0 0-9-2.4A17.4 17.4 0 0 0 9 2.4a17.7 17.7 0 0 0-6.5 6.5A17.4 17.4 0 0 0 0 17.8a17.3 17.3 0 0 0 3.4 10.4 17.4 17.4 0 0 0 8.8 6.4 1 1 0 0 0 .9-.1 1 1 0 0 0 .3-.7v-1.3-2h-.6a6.8 6.8 0 0 1-1.3.2 9.8 9.8 0 0 1-1.6-.2 3.6 3.6 0 0 1-1.5-.7 3 3 0 0 1-1-1.4l-.3-.6a5.8 5.8 0 0 0-.7-1.1 2.8 2.8 0 0 0-1-1h-.2a1.7 1.7 0 0 1-.3-.3 1.3 1.3 0 0 1-.2-.3l.1-.3a1.5 1.5 0 0 1 .7-.1H6a3.4 3.4 0 0 1 1.1.6 3.7 3.7 0 0 1 1.1 1.2A4 4 0 0 0 9.5 28a2.7 2.7 0 0 0 1.5.5 6.6 6.6 0 0 0 1.4-.1 4.6 4.6 0 0 0 1-.4 3.8 3.8 0 0 1 1.1-2.4 15.8 15.8 0 0 1-2.3-.4 9.4 9.4 0 0 1-2.2-.9A6.2 6.2 0 0 1 8 22.8 7.5 7.5 0 0 1 7 20.3a11.6 11.6 0 0 1-.5-3.4A6.8 6.8 0 0 1 8.3 12a6.2 6.2 0 0 1 .1-4.7 3.2 3.2 0 0 1 2 .3 14 14 0 0 1 2 .9l1 .6a16.7 16.7 0 0 1 8.8 0l.9-.6a12.5 12.5 0 0 1 2.1-1 3 3 0 0 1 1.9-.2 6.2 6.2 0 0 1 .2 4.7 6.8 6.8 0 0 1 1.8 4.8 11.7 11.7 0 0 1-.5 3.4 7.2 7.2 0 0 1-1.2 2.5 6.5 6.5 0 0 1-1.9 1.5 9.5 9.5 0 0 1-2.1.9 15.8 15.8 0 0 1-2.4.4 4.1 4.1 0 0 1 1.2 3.3v4.9a1 1 0 0 0 .3.7 1 1 0 0 0 .9.1 17.4 17.4 0 0 0 8.8-6.4 17.3 17.3 0 0 0 3.3-10.4 17.4 17.4 0 0 0-2.3-9z"
     data-name="Path 291"
     id="path2"
     style="fill:#ffffff" />
</svg>
