<?xml version="1.0" encoding="UTF-8" standalone="no"?>
<!-- Created with Inkscape (http://www.inkscape.org/) -->

<svg
   xmlns:dc="http://purl.org/dc/elements/1.1/"
   xmlns:cc="http://creativecommons.org/ns#"
   xmlns:rdf="http://www.w3.org/1999/02/22-rdf-syntax-ns#"
   xmlns:svg="http://www.w3.org/2000/svg"
   xmlns="http://www.w3.org/2000/svg"
   xmlns:sodipodi="http://sodipodi.sourceforge.net/DTD/sodipodi-0.dtd"
   xmlns:inkscape="http://www.inkscape.org/namespaces/inkscape"
   width="72.223389mm"
   height="30.166105mm"
   viewBox="0 0 72.223389 30.166105"
   version="1.1"
   id="svg36"
   inkscape:version="0.92.3 (2405546, 2018-03-11)"
   sodipodi:docname="git_h.svg">
  <defs
     id="defs30" />
  <sodipodi:namedview
     id="base"
     pagecolor="#ffffff"
     bordercolor="#666666"
     borderopacity="1.0"
     inkscape:pageopacity="0.0"
     inkscape:pageshadow="2"
     inkscape:zoom="1.4"
     inkscape:cx="139.85577"
     inkscape:cy="19.66129"
     inkscape:document-units="mm"
     inkscape:current-layer="layer1"
     showgrid="false"
     fit-margin-top="0"
     fit-margin-left="0"
     fit-margin-right="0"
     fit-margin-bottom="0"
     inkscape:window-width="1366"
     inkscape:window-height="741"
     inkscape:window-x="0"
     inkscape:window-y="6"
     inkscape:window-maximized="0" />
  <metadata
     id="metadata33">
    <rdf:RDF>
      <cc:Work
         rdf:about="">
        <dc:format>image/svg+xml</dc:format>
        <dc:type
           rdf:resource="http://purl.org/dc/dcmitype/StillImage" />
        <dc:title></dc:title>
      </cc:Work>
    </rdf:RDF>
  </metadata>
  <g
     inkscape:label="Layer 1"
     inkscape:groupmode="layer"
     id="layer1"
     transform="translate(-3.30725e-5,-266.83464)">
    <path
       inkscape:connector-curvature="0"
       style="fill:#ffffff;stroke-width:0.26458332"
       d="m 43.283189,277.10228 c -1.583532,0 -2.762779,0.77758 -2.762779,2.649 0,1.40999 0.777213,2.38877 2.677583,2.38877 1.610651,0 2.704571,-0.94904 2.704571,-2.447 0,-1.69757 -0.978959,-2.59067 -2.619375,-2.59067 z m -3.167063,13.21329 c -0.374703,0.4599 -0.748109,0.94853 -0.748109,1.52521 0,1.15046 1.467114,1.4967 3.482446,1.4967 1.669521,0 3.943614,-0.11692 3.943614,-1.66913 0,-0.92257 -1.094052,-0.97969 -2.4765,-1.06637 l -4.201583,-0.28641 z m 8.519848,-13.12625 c 0.517261,0.66223 1.064948,1.58348 1.064948,2.90751 0,3.19484 -2.504281,5.06571 -6.130131,5.06571 -0.922076,0 -1.756834,-0.11486 -2.274411,-0.25853 l -0.950172,1.52527 2.820458,0.17231 c 4.979988,0.31729 7.915011,0.46149 7.915011,4.28837 0,3.31099 -2.906451,5.1808 -7.915011,5.1808 -5.209646,0 -7.195608,-1.32421 -7.195608,-3.5978 0,-1.2958 0.575786,-1.98504 1.583214,-2.93635 -0.950172,-0.40163 -1.266349,-1.12082 -1.266349,-1.89833 0,-0.63367 0.316177,-1.2092 0.835078,-1.75646 0.517922,-0.54637 1.09339,-1.094 1.784297,-1.72704 -1.410229,-0.69067 -2.475495,-2.18747 -2.475495,-4.31774 0,-3.30967 2.187787,-5.58271 6.590771,-5.58271 1.237933,0 1.986703,0.11394 2.648744,0.28771 h 5.613135 v 2.44597 l -2.648479,0.20155"
       id="path2" />
    <path
       inkscape:connector-curvature="0"
       style="fill:#ffffff;stroke-width:0.26458332"
       d="m 56.35096,271.95878 c -1.641079,0 -2.590589,-0.95071 -2.590589,-2.59197 0,-1.6392 0.949534,-2.53217 2.590589,-2.53217 1.66952,0 2.619375,0.89297 2.619375,2.53217 0,1.64124 -0.949855,2.59197 -2.619375,2.59197 z m -3.713692,17.29739 v -2.27274 l 1.468437,-0.20088 c 0.403172,-0.0584 0.460375,-0.14407 0.460375,-0.57685 v -8.46217 c 0,-0.31596 -0.08599,-0.51832 -0.374703,-0.60399 l -1.554109,-0.54737 0.316495,-2.33061 h 5.958681 v 11.94435 c 0,0.46138 0.02778,0.51845 0.460692,0.57685 l 1.46812,0.20088 v 2.27275 h -8.2042"
       id="path4" />
    <path
       inkscape:connector-curvature="0"
       style="fill:#ffffff;stroke-width:0.26458332"
       d="m 72.223314,288.14069 c -1.23825,0.60373 -3.051175,1.1507 -4.69265,1.1507 -3.425032,0 -4.719902,-1.38028 -4.719902,-4.63418 v -7.54062 c 0,-0.17235 0,-0.28797 -0.23118,-0.28797 h -2.014485 v -2.56159 c 2.533703,-0.28861 3.54039,-1.55533 3.857096,-4.69265 h 2.734734 v 4.0886 c 0,0.20076 0,0.28771 0.230518,0.28771 h 4.058179 v 2.87787 h -4.288631 v 6.87891 c 0,1.69846 0.403489,2.35992 1.956911,2.35992 0.806979,0 1.640734,-0.20088 2.331641,-0.46016 l 0.777875,2.53367"
       id="path6" />
    <path
       inkscape:connector-curvature="0"
       style="fill:#ffffff;stroke-width:0.26458332"
       d="M 29.575126,280.5871 16.413427,267.42702 c -0.75729,-0.75798 -1.986545,-0.75798 -2.744787,0 l -2.732882,2.73314 3.466571,3.46657 c 0.805894,-0.27209 1.729608,-0.0897 2.371699,0.55256 0.645424,0.64622 0.826558,1.57782 0.547634,2.38641 l 3.341159,3.34116 c 0.808328,-0.27855 1.740958,-0.0986 2.386409,0.548 0.902388,0.90213 0.902388,2.36392 0,3.26628 -0.90252,0.90266 -2.364317,0.90266 -3.26734,0 -0.678524,-0.67905 -0.846349,-1.676 -0.502682,-2.512 l -3.115997,-3.116 -2.65e-4,8.1997 c 0.220001,0.10891 0.42762,0.25427 0.610949,0.4368 0.902124,0.90202 0.902124,2.36355 0,3.26708 -0.902388,0.90199 -2.364845,0.90199 -3.266281,0 -0.902256,-0.90345 -0.902256,-2.36498 0,-3.26708 0.222978,-0.22258 0.480986,-0.39105 0.756285,-0.50398 v -8.2759 c -0.275431,-0.11245 -0.533135,-0.27966 -0.756444,-0.50403 -0.683418,-0.68289 -0.848016,-1.68592 -0.497522,-2.52516 l -3.4173584,-3.41788 -9.02387919,9.02361 c -0.75821645,0.75856 -0.75821645,1.98782 0,2.74585 L 13.7296,296.43226 c 0.757713,0.75798 1.986544,0.75798 2.745316,0 l 13.100049,-13.09794 c 0.757981,-0.75835 0.757981,-1.98797 0,-2.74611"
       id="path8" />
  </g>
</svg>
