<?xml version="1.0" encoding="UTF-8" standalone="no"?>
<!-- Created with Inkscape (http://www.inkscape.org/) -->

<svg
   xmlns:dc="http://purl.org/dc/elements/1.1/"
   xmlns:cc="http://creativecommons.org/ns#"
   xmlns:rdf="http://www.w3.org/1999/02/22-rdf-syntax-ns#"
   xmlns:svg="http://www.w3.org/2000/svg"
   xmlns="http://www.w3.org/2000/svg"
   xmlns:sodipodi="http://sodipodi.sourceforge.net/DTD/sodipodi-0.dtd"
   xmlns:inkscape="http://www.inkscape.org/namespaces/inkscape"
   width="48.162907mm"
   height="42.015831mm"
   viewBox="0 0 48.162907 42.015831"
   version="1.1"
   id="svg878"
   inkscape:version="0.92.3 (2405546, 2018-03-11)"
   sodipodi:docname="gitkraken_.svg">
  <defs
     id="defs872" />
  <sodipodi:namedview
     id="base"
     pagecolor="#ffffff"
     bordercolor="#666666"
     borderopacity="1.0"
     inkscape:pageopacity="0.0"
     inkscape:pageshadow="2"
     inkscape:zoom="1.979899"
     inkscape:cx="189.18166"
     inkscape:cy="57.150063"
     inkscape:document-units="mm"
     inkscape:current-layer="layer1"
     showgrid="false"
     fit-margin-top="0"
     fit-margin-left="0"
     fit-margin-right="0"
     fit-margin-bottom="0"
     inkscape:window-width="1366"
     inkscape:window-height="741"
     inkscape:window-x="0"
     inkscape:window-y="6"
     inkscape:window-maximized="0" />
  <metadata
     id="metadata875">
    <rdf:RDF>
      <cc:Work
         rdf:about="">
        <dc:format>image/svg+xml</dc:format>
        <dc:type
           rdf:resource="http://purl.org/dc/dcmitype/StillImage" />
        <dc:title></dc:title>
      </cc:Work>
    </rdf:RDF>
  </metadata>
  <g
     inkscape:label="Layer 1"
     inkscape:groupmode="layer"
     id="layer1"
     transform="translate(-8.9820602,-235.88125)">
    <path
       style="fill:#ffffff;stroke-width:0.26458332"
       inkscape:connector-curvature="0"
       id="path25"
       d="m 55.588957,245.35333 c -0.185209,-0.5027 -0.740834,-0.74083 -1.243542,-0.55562 -0.370417,0.13229 -0.608542,0.50271 -0.608542,0.89958 0,0.10584 0.02646,0.23813 0.05292,0.34396 4.312708,11.45646 -1.508125,24.23583 -12.964583,28.54854 -1.561042,0.58209 -3.201459,1.00542 -4.868334,1.21709 v -10.34521 c 0.661459,-0.13229 1.296459,-0.3175 1.931459,-0.52917 v 8.70479 c 10.927288,-2.67229 17.647705,-13.67896 14.975413,-24.60625 -1.349375,-5.52979 -4.947708,-10.26583 -9.948333,-13.0175 -0.47625,-0.26458 -1.058333,-0.0794 -1.296458,0.37042 -0.264584,0.47625 -0.07937,1.05833 0.370416,1.29646 8.916459,4.92125 12.144375,16.16604 7.223125,25.0825 -2.06375,3.75708 -5.3975,6.6675 -9.392708,8.22854 v -7.69938 c 1.217083,-0.39687 2.06375,-1.50812 2.06375,-2.80458 0,-1.05833 -0.529167,-2.01083 -1.455208,-2.54 0.687916,-6.64104 3.730625,-4.89479 3.730625,-7.01146 v -1.24354 c 0,-3.175 -7.355417,-13.52021 -10.794999,-13.75833 -0.105833,0 -0.211667,0 -0.3175,0 -0.105833,0 -0.211667,0 -0.3175,0 -3.439583,0.23812 -10.795,10.58333 -10.795,13.75833 v 1.24354 c 0,2.11667 3.01625,0.37042 3.730625,7.01146 -0.899583,0.52917 -1.455208,1.48167 -1.455208,2.54 0,1.29646 0.846666,2.40771 2.06375,2.80458 v 7.69938 C 16.8275,267.26083 12.170833,256.54521 15.901458,247.07313 c 1.5875,-3.99521 4.471458,-7.3025 8.228542,-9.39271 0.47625,-0.26459 0.635,-0.84667 0.370416,-1.32292 -0.15875,-0.29104 -0.502708,-0.47625 -0.846666,-0.47625 -0.15875,0 -0.3175,0.0529 -0.449792,0.13229 -9.8425,5.42396 -13.4408332,17.80646 -7.990416,27.67542 2.751666,5.00062 7.487708,8.59896 13.017499,9.94833 v -8.67833 c 0.635,0.21167 1.27,0.39687 1.931459,0.52917 v 10.3452 c -12.144375,-1.61395 -20.6639585,-12.75291 -19.05,-24.89729 0.211666,-1.66687 0.635,-3.30729 1.217083,-4.86833 0.185209,-0.50271 -0.07937,-1.05833 -0.555625,-1.24354 -0.47625,-0.18521 -1.058333,0.0794 -1.243542,0.55562 v 0 c -4.6831244,12.46188 1.613959,26.3525 14.075834,31.00917 2.407708,0.89958 4.92125,1.40229 7.487708,1.50812 v -12.22375 c 0.343958,0.0265 0.978958,0.0265 0.978958,0.0265 0,0 0.635,0 0.978959,-0.0265 v 12.1973 c 13.30854,-0.55563 23.62729,-11.77396 23.071665,-25.0825 -0.132292,-2.51355 -0.635,-5.02709 -1.534583,-7.4348 z m -18.0975,13.73188 c 0.767291,-0.76729 2.010833,-0.76729 2.804583,0 0.767292,0.76729 0.767292,2.01083 0,2.80458 -0.767292,0.76729 -2.010833,0.76729 -2.804583,0 -0.370417,-0.37041 -0.582084,-0.87312 -0.582084,-1.40229 0,-0.52917 0.211667,-1.03187 0.582084,-1.40229 z m -8.889999,2.80458 c -0.767292,0.76729 -2.010833,0.76729 -2.778125,0 0,0 0,0 0,0 -0.767292,-0.76729 -0.767292,-2.03729 0,-2.80458 0.767292,-0.76729 2.037292,-0.76729 2.804583,0 0.767292,0.79375 0.767292,2.03729 -0.02646,2.80458 z"
       class="st2" />
  </g>
</svg>
