<svg id="Logos" xmlns="http://www.w3.org/2000/svg" xmlns:xlink="http://www.w3.org/1999/xlink" width="525.54" height="150" viewBox="0 0 525.54 150"><defs><style>.cls-1{fill:#fff;}.cls-2{fill:url(#linear-gradient);}</style><linearGradient id="linear-gradient" x1="51.37" y1="86" x2="51.37" y2="55.79" gradientUnits="userSpaceOnUse"><stop offset="0" stop-color="#fff" stop-opacity="0.4"/><stop offset="1" stop-color="#fff"/></linearGradient></defs><title>sourcetree-logo-gradient-white</title><path class="cls-1" d="M45.94,82.49a8.8,8.8,0,0,0-8.79-8.79h0a9.61,9.61,0,1,1,0-19.22h0a9.14,9.14,0,0,1,1.9.19v-19c-.63,0-1.26-.07-1.9-.07h0a28.43,28.43,0,0,0-8.78,55.48v14.29a2,2,0,0,0,2,2H43.94a2,2,0,0,0,2-2Z"/><path class="cls-2" d="M37.15,35.65V54.48h0a9.61,9.61,0,0,1,0,19.22h0a8.8,8.8,0,0,1,8.79,8.79v8.65a28.44,28.44,0,0,0-8.79-55.49Z"/><path class="cls-1" d="M116.38,101.33c-11.17,0-16.37-2.2-20.85-4.48v-8.1c5.36,2.82,13.64,4.84,21.29,4.84,8.71,0,12-3.43,12-8.54s-3.17-7.83-14.17-10.47c-13-3.17-18.83-7.65-18.83-17.16,0-9,6.86-15.66,20.33-15.66,8.36,0,13.72,2,17.68,4.22V53.9a35.52,35.52,0,0,0-18-4.4c-7.57,0-12.06,2.64-12.06,7.92,0,4.75,3.7,7.13,13.9,9.68,12.23,3.08,19.1,7,19.1,17.43C136.71,94.56,130.72,101.33,116.38,101.33Z"/><path class="cls-1" d="M143.4,78.37c0-13.2,7.74-22.8,20.94-22.8s20.77,9.6,20.77,22.8-7.66,23-20.77,23S143.4,91.57,143.4,78.37Zm7.39,0c0,8.36,4.13,15.92,13.55,15.92s13.38-7.56,13.38-15.92-4.05-15.76-13.38-15.76S150.79,70,150.79,78.37Z"/><path class="cls-1" d="M193,56.45h7.57V83c0,7.92,3.16,11.44,10.38,11.44,7,0,11.88-4.66,11.88-13.55V56.45h7.57v44h-7.57V93.24a15.43,15.43,0,0,1-13.9,8.09c-10.12,0-15.93-7-15.93-19.09Z"/><path class="cls-1" d="M249.26,100.45h-7.39v-44h7.39V64.2c2.55-5.19,6.95-8.89,15.58-8.36v7.39c-9.68-1-15.58,1.94-15.58,11.26Z"/><path class="cls-1" d="M301.53,99.31c-2.64,1.41-6.69,2-10.74,2-15.66,0-23-9.5-23-23,0-13.29,7.3-22.8,23-22.8a23.24,23.24,0,0,1,10.48,2.12v7a22.2,22.2,0,0,0-9.95-2.12c-11.44,0-16.1,7.22-16.1,15.76S280,94.12,291.5,94.12a27.72,27.72,0,0,0,10-1.59Z"/><path class="cls-1" d="M331.19,101.33c-16.46,0-23.68-9.5-23.68-23,0-13.29,7.4-22.8,20.77-22.8,13.55,0,19,9.42,19,22.8V81.8H315.17c1.06,7.48,5.9,12.32,16.28,12.32a39,39,0,0,0,13.38-2.38v7C341.22,100.63,335.67,101.33,331.19,101.33Zm-16.11-26h24.55c-.44-8.19-4.13-12.85-11.7-12.85C319.92,62.44,315.87,67.63,315.08,75.29Z"/><path class="cls-1" d="M373.69,93.33a24.26,24.26,0,0,0,4.75-.62V100a17.86,17.86,0,0,1-5.1.71c-9.42,0-14-5.55-14-13.73V63.49h-7.13v-7h7.13V47.13h7.39v9.32h11.7v7h-11.7V86.81C366.74,90.69,369,93.33,373.69,93.33Z"/><path class="cls-1" d="M395.51,100.45h-7.39v-44h7.39V64.2c2.55-5.19,6.95-8.89,15.58-8.36v7.39c-9.68-1-15.58,1.94-15.58,11.26Z"/><path class="cls-1" d="M437.75,101.33c-16.45,0-23.67-9.5-23.67-23,0-13.29,7.39-22.8,20.77-22.8,13.55,0,19,9.42,19,22.8V81.8H421.74c1.05,7.48,5.89,12.32,16.28,12.32a38.92,38.92,0,0,0,13.37-2.38v7C447.79,100.63,442.24,101.33,437.75,101.33Zm-16.1-26H446.2c-.44-8.19-4.13-12.85-11.7-12.85C426.49,62.44,422.44,67.63,421.65,75.29Z"/><path class="cls-1" d="M483.86,101.33c-16.45,0-23.67-9.5-23.67-23,0-13.29,7.39-22.8,20.77-22.8,13.55,0,19,9.42,19,22.8V81.8H467.85c1,7.48,5.89,12.32,16.28,12.32a38.92,38.92,0,0,0,13.37-2.38v7C493.9,100.63,488.35,101.33,483.86,101.33Zm-16.1-26h24.55c-.44-8.19-4.13-12.85-11.7-12.85C472.6,62.44,468.55,67.63,467.76,75.29Z"/></svg>