<?xml version="1.0" encoding="UTF-8" standalone="no"?>
<svg
   xmlns:dc="http://purl.org/dc/elements/1.1/"
   xmlns:cc="http://creativecommons.org/ns#"
   xmlns:rdf="http://www.w3.org/1999/02/22-rdf-syntax-ns#"
   xmlns:svg="http://www.w3.org/2000/svg"
   xmlns="http://www.w3.org/2000/svg"
   xmlns:sodipodi="http://sodipodi.sourceforge.net/DTD/sodipodi-0.dtd"
   xmlns:inkscape="http://www.inkscape.org/namespaces/inkscape"
   viewBox="0 0 37.8 32.9"
   version="1.1"
   id="svg4"
   sodipodi:docname="telegram.svg"
   inkscape:version="0.92.3 (2405546, 2018-03-11)">
  <metadata
     id="metadata10">
    <rdf:RDF>
      <cc:Work
         rdf:about="">
        <dc:format>image/svg+xml</dc:format>
        <dc:type
           rdf:resource="http://purl.org/dc/dcmitype/StillImage" />
      </cc:Work>
    </rdf:RDF>
  </metadata>
  <defs
     id="defs8" />
  <sodipodi:namedview
     pagecolor="#ffffff"
     bordercolor="#666666"
     borderopacity="1"
     objecttolerance="10"
     gridtolerance="10"
     guidetolerance="10"
     inkscape:pageopacity="0"
     inkscape:pageshadow="2"
     inkscape:window-width="1366"
     inkscape:window-height="741"
     id="namedview6"
     showgrid="false"
     inkscape:zoom="7.1732519"
     inkscape:cx="-4.2415269"
     inkscape:cy="16.450001"
     inkscape:window-x="0"
     inkscape:window-y="6"
     inkscape:window-maximized="0"
     inkscape:current-layer="svg4" />
  <path
     fill="#6c63ff"
     d="M.7 15.8L9.4 19l3.3 10.8a1 1 0 0 0 1.7.5l4.8-4a1.4 1.4 0 0 1 1.8 0l8.7 6.4a1 1 0 0 0 1.6-.6l6.4-30.9A1 1 0 0 0 36.4.1L.7 13.8a1 1 0 0 0 0 2zm11.5 1.5l17-10.5a.3.3 0 0 1 .3.5l-14 13a3 3 0 0 0-.9 1.8l-.5 3.5a.4.4 0 0 1-.8 0l-1.9-6.4a1.7 1.7 0 0 1 .8-2z"
     id="path2"
     style="fill:#ffffff" />
</svg>
