<svg id="Logos" xmlns="http://www.w3.org/2000/svg" xmlns:xlink="http://www.w3.org/1999/xlink" width="476.49" height="150" viewBox="0 0 476.49 150"><defs><style>.cls-1{fill:#505f79;}.cls-2{fill:none;}.cls-3{fill:#7a869a;}.cls-4{fill:url(#New_Gradient_Swatch_4);}</style><linearGradient id="New_Gradient_Swatch_4" x1="70.12" y1="68.33" x2="39.1" y2="92.55" gradientUnits="userSpaceOnUse"><stop offset="0.18" stop-color="#344563"/><stop offset="1" stop-color="#7a869a"/></linearGradient></defs><title>bitbucket-logo-gradient-neutral</title><path class="cls-1" d="M100.54,42.64h24.2c11.79,0,17.51,5.81,17.51,15.13,0,7-3.17,11.27-9.68,12.85,8.54,1.41,12.76,6.07,12.76,14.26,0,9.24-6.25,15.57-19.18,15.57H100.54Zm7.92,7.57V67.45h15.22c7.48,0,10.56-3.43,10.56-9s-3.34-8.27-10.56-8.27Zm0,24.28v18h18c7.57,0,11-2.72,11-8.53,0-6.16-3.25-9.51-11.17-9.51Z"/><path class="cls-1" d="M158.27,39.56a4.94,4.94,0,0,1,5.28,5.28,5.28,5.28,0,0,1-10.56,0A4.94,4.94,0,0,1,158.27,39.56ZM154.4,56.45H162v44H154.4Z"/><path class="cls-1" d="M190.83,93.32a24.31,24.31,0,0,0,4.75-.61V100a18.25,18.25,0,0,1-5.11.71c-9.41,0-14-5.55-14-13.73V63.49h-7.12v-7h7.12V47.13h7.4v9.32h11.7v7h-11.7V86.81C183.88,90.69,186.16,93.32,190.83,93.32Z"/><path class="cls-1" d="M212.83,92.71v7.74h-7.57V38.06h7.57V64.37c2.81-5.8,8.09-8.8,14.87-8.8,11.7,0,17.6,9.95,17.6,22.88,0,12.41-6.16,22.88-18.48,22.88C220.39,101.33,215.47,98.43,212.83,92.71Zm12.84-30.1c-6.77,0-12.84,4.32-12.84,14.08v3.52c0,9.77,5.54,14.08,12,14.08,8.54,0,12.94-5.63,12.94-15.84C237.73,67.89,233.51,62.61,225.67,62.61Z"/><path class="cls-1" d="M253.22,56.45h7.57V83c0,7.92,3.16,11.44,10.38,11.44,7,0,11.88-4.66,11.88-13.55V56.45h7.57v44h-7.57V93.24a15.43,15.43,0,0,1-13.9,8.09c-10.12,0-15.93-7-15.93-19.09Z"/><path class="cls-1" d="M333.12,99.31c-2.64,1.41-6.69,2-10.73,2-15.67,0-23-9.5-23-23,0-13.29,7.3-22.8,23-22.8a23.17,23.17,0,0,1,10.47,2.12v7a22.2,22.2,0,0,0-9.95-2.12c-11.44,0-16.1,7.22-16.1,15.76s4.75,15.75,16.28,15.75a27.72,27.72,0,0,0,10-1.59Z"/><path class="cls-1" d="M341.75,100.45V38.06h7.56v39l18.92-20.6h9.86L357.41,78.1,379,100.45h-10.3L349.31,79.86v20.59Z"/><path class="cls-1" d="M404.05,101.33c-16.46,0-23.67-9.5-23.67-23,0-13.29,7.39-22.8,20.76-22.8,13.56,0,19,9.42,19,22.8V81.8H388c1.06,7.48,5.9,12.32,16.28,12.32a38.94,38.94,0,0,0,13.38-2.38v7C414.08,100.63,408.54,101.33,404.05,101.33Zm-16.11-26H412.5c-.44-8.19-4.14-12.85-11.71-12.85C392.78,62.44,388.74,67.63,387.94,75.29Z"/><path class="cls-1" d="M446.55,93.32a24.31,24.31,0,0,0,4.75-.61V100a18.17,18.17,0,0,1-5.1.71c-9.42,0-14-5.55-14-13.73V63.49h-7.13v-7h7.13V47.13h7.39v9.32h11.7v7H439.6V86.81C439.6,90.69,441.89,93.32,446.55,93.32Z"/><polygon class="cls-2" points="30.81 81.57 43.86 81.57 47.01 63.19 27.34 63.19 30.81 81.57"/><path class="cls-3" d="M8.11,44.32a2,2,0,0,0-2,2.32L14.6,98.18a2.71,2.71,0,0,0,2.66,2.27H58a2,2,0,0,0,2-1.68l8.51-52.12a2,2,0,0,0-2-2.32ZM43.86,81.57h-13L27.34,63.19H47Z"/><path class="cls-4" d="M65.78,63.19H47L43.86,81.57h-13L15.51,99.8a2.71,2.71,0,0,0,1.75.65H58a2,2,0,0,0,2-1.68Z"/></svg>