<svg id="Logos" xmlns="http://www.w3.org/2000/svg" xmlns:xlink="http://www.w3.org/1999/xlink" width="80" height="80" viewBox="0 0 80 80"><defs><style>.cls-1{fill:#ebecf0;}.cls-2{fill:none;}.cls-3{fill:#7a869a;}.cls-4{fill:url(#New_Gradient_Swatch_4);}</style><linearGradient id="New_Gradient_Swatch_4" x1="58.99" y1="37.71" x2="41.09" y2="51.68" gradientUnits="userSpaceOnUse"><stop offset="0.18" stop-color="#344563"/><stop offset="1" stop-color="#7a869a"/></linearGradient></defs><title>bitbucket-icon-contained-gradient-neutral</title><rect class="cls-1" width="80" height="80"/><polygon class="cls-2" points="36.31 45.34 43.84 45.34 45.66 34.74 34.31 34.74 36.31 45.34"/><path class="cls-3" d="M23.21,23.85a1.16,1.16,0,0,0-1.14,1.34L27,54.93a1.57,1.57,0,0,0,1.53,1.31H52a1.15,1.15,0,0,0,1.14-1L58,25.2a1.15,1.15,0,0,0-1.14-1.34ZM43.84,45.34H36.31l-2-10.6H45.66Z"/><path class="cls-4" d="M56.48,34.74H45.66l-1.82,10.6H36.31L27.48,55.86a1.58,1.58,0,0,0,1,.38H52a1.15,1.15,0,0,0,1.14-1Z"/></svg>