<svg id="Logos" xmlns="http://www.w3.org/2000/svg" xmlns:xlink="http://www.w3.org/1999/xlink" width="80" height="80" viewBox="0 0 80 80"><defs><style>.cls-1{fill:none;}.cls-2{fill:url(#linear-gradient);}.cls-3{fill:#fff;}</style><linearGradient id="linear-gradient" x1="69.85" y1="39.05" x2="41.63" y2="58.16" gradientUnits="userSpaceOnUse"><stop offset="0.07" stop-color="#fff" stop-opacity="0.4"/><stop offset="1" stop-color="#fff"/></linearGradient></defs><title>bitbucket-icon-gradient-white</title><polygon class="cls-1" points="33.84 48.88 46.38 48.88 49.41 31.2 30.5 31.2 33.84 48.88"/><path class="cls-2" d="M67.46,31.2h-18l-3,17.68H33.84L19.12,66.4a2.62,2.62,0,0,0,1.69.63H60a1.93,1.93,0,0,0,1.9-1.62Z"/><path class="cls-3" d="M12,13.06a1.93,1.93,0,0,0-1.9,2.24l8.14,49.55a2.6,2.6,0,0,0,.87,1.55h0a2.62,2.62,0,0,0,1.69.63L36,48.88H33.84L30.5,31.2h37l2.59-15.89a1.93,1.93,0,0,0-1.9-2.24Z"/></svg>